<svg xmlns="http://www.w3.org/2000/svg" xmlns:xlink="http://www.w3.org/1999/xlink" zoomAndPan="magnify" viewBox="459.853 345.391 580.181 606.006" preserveAspectRatio="xMidYMid meet" version="1.0"><defs><g/><clipPath id="8038736af2"><path d="M 601.546875 353.390625 L 898.546875 353.390625 L 898.546875 848.390625 L 601.546875 848.390625 Z M 601.546875 353.390625 " clip-rule="nonzero"/></clipPath><clipPath id="3b98e439c2"><path d="M 696.566406 396.769531 L 803.066406 396.769531 L 803.066406 600.769531 L 696.566406 600.769531 Z M 696.566406 396.769531 " clip-rule="nonzero"/></clipPath><clipPath id="e40566f2d8"><rect x="0" width="583" y="0" height="73"/></clipPath></defs><g clip-path="url(#8038736af2)"><path fill="currentColor" d="M 855.015625 396.816406 C 826.910156 368.8125 789.671875 353.390625 750 353.390625 C 668.21875 353.390625 601.558594 419.949219 601.558594 501.726562 L 601.558594 699.886719 C 601.558594 781.664062 668.117188 848.226562 750 848.226562 L 750.203125 848.226562 C 831.980469 848.125 898.441406 781.5625 898.441406 699.886719 L 898.441406 501.726562 C 898.441406 462.15625 883.019531 424.921875 855.015625 396.816406 Z M 888.597656 699.886719 C 888.597656 776.1875 826.503906 838.28125 750.203125 838.382812 L 750 838.382812 C 673.597656 838.382812 611.402344 776.289062 611.402344 699.886719 L 611.402344 501.726562 C 611.503906 425.429688 673.597656 363.230469 750 363.230469 C 787.035156 363.230469 821.835938 377.640625 848.011719 403.816406 C 874.191406 429.992188 888.597656 464.796875 888.597656 501.726562 Z M 888.597656 699.886719 " fill-opacity="1" fill-rule="nonzero"/></g><path fill="currentColor" d="M 750 373.074219 C 679.078125 373.074219 621.34375 430.804688 621.34375 501.726562 L 621.34375 699.886719 C 621.34375 770.808594 679.078125 828.539062 750.101562 828.539062 L 750.304688 828.539062 C 821.125 828.441406 878.859375 770.707031 878.859375 699.886719 L 878.859375 501.726562 C 878.757812 430.804688 821.023438 373.074219 750 373.074219 Z M 754.363281 640.53125 C 754.160156 640.835938 753.957031 641.238281 753.652344 641.542969 C 753.550781 641.746094 753.347656 641.949219 753.246094 642.152344 C 753.042969 642.457031 752.839844 642.863281 752.636719 643.167969 C 752.535156 643.371094 752.433594 643.574219 752.230469 643.777344 C 752.027344 644.082031 751.824219 644.488281 751.621094 644.792969 C 751.523438 644.996094 751.421875 645.195312 751.320312 645.398438 C 751.117188 645.804688 750.914062 646.210938 750.710938 646.617188 C 750.609375 646.71875 750.609375 646.921875 750.507812 647.023438 C 750.203125 647.632812 750 648.140625 749.695312 648.75 C 749.59375 648.851562 749.59375 649.050781 749.492188 649.152344 C 749.289062 649.558594 749.085938 650.066406 748.984375 650.472656 C 748.882812 650.675781 748.78125 650.878906 748.78125 651.082031 C 748.679688 651.488281 748.476562 651.894531 748.375 652.199219 C 748.273438 652.402344 748.171875 652.605469 748.171875 652.910156 C 748.070312 653.3125 747.867188 653.71875 747.765625 654.023438 C 747.664062 654.226562 747.664062 654.429688 747.566406 654.734375 C 747.464844 655.140625 747.363281 655.546875 747.160156 655.953125 C 747.058594 656.15625 747.058594 656.359375 746.957031 656.5625 C 746.652344 657.777344 746.347656 658.996094 746.144531 660.316406 C 746.144531 660.519531 746.042969 660.722656 746.042969 660.925781 C 745.941406 661.328125 745.941406 661.835938 745.839844 662.242188 C 745.839844 662.445312 745.738281 662.75 745.738281 662.953125 C 745.738281 663.15625 745.636719 663.359375 745.636719 663.664062 C 731.230469 661.53125 720.167969 649.152344 720.167969 634.136719 C 720.167969 617.699219 733.5625 604.308594 750 604.308594 C 761.667969 604.308594 771.914062 610.902344 776.785156 621.050781 C 776.582031 621.152344 776.378906 621.25 776.175781 621.351562 C 775.972656 621.453125 775.769531 621.554688 775.566406 621.65625 C 775.164062 621.859375 774.757812 622.0625 774.351562 622.265625 C 774.148438 622.367188 773.945312 622.46875 773.84375 622.570312 C 773.234375 622.875 772.726562 623.179688 772.21875 623.484375 C 771.710938 623.789062 771.207031 624.09375 770.597656 624.5 C 770.394531 624.601562 770.292969 624.703125 770.089844 624.804688 C 769.785156 625.007812 769.378906 625.308594 769.074219 625.511719 C 768.871094 625.613281 768.667969 625.816406 768.464844 625.917969 C 768.160156 626.121094 767.855469 626.324219 767.550781 626.628906 C 767.351562 626.730469 767.148438 626.933594 766.945312 627.035156 C 766.640625 627.238281 766.335938 627.542969 766.03125 627.746094 C 765.828125 627.847656 765.625 628.050781 765.523438 628.152344 C 765.117188 628.457031 764.8125 628.761719 764.507812 629.066406 C 764.40625 629.164062 764.203125 629.265625 764.101562 629.367188 C 763.59375 629.773438 763.191406 630.179688 762.683594 630.585938 C 762.582031 630.6875 762.378906 630.789062 762.277344 630.992188 C 761.972656 631.296875 761.667969 631.601562 761.261719 631.90625 C 761.058594 632.109375 760.957031 632.210938 760.753906 632.414062 C 760.449219 632.71875 760.246094 633.023438 759.941406 633.222656 C 759.738281 633.425781 759.636719 633.628906 759.4375 633.832031 C 759.132812 634.136719 758.929688 634.441406 758.625 634.644531 C 758.421875 634.847656 758.320312 635.050781 758.117188 635.253906 C 757.8125 635.558594 757.609375 635.863281 757.304688 636.167969 C 757.203125 636.371094 757 636.472656 756.898438 636.675781 C 756.492188 637.179688 756.1875 637.585938 755.78125 638.09375 C 755.78125 638.195312 755.679688 638.195312 755.679688 638.296875 C 755.378906 638.804688 754.972656 639.210938 754.667969 639.71875 C 754.566406 640.125 754.464844 640.328125 754.363281 640.53125 Z M 744.925781 710.742188 L 744.925781 780.246094 L 737.214844 780.246094 C 710.226562 780.246094 688.207031 758.226562 688.207031 731.238281 L 688.207031 649.355469 C 702.820312 650.472656 716.414062 656.765625 726.867188 667.214844 C 733.15625 673.503906 738.027344 681.113281 741.070312 689.433594 C 743.609375 696.234375 744.925781 703.4375 744.925781 710.742188 Z M 784.902344 628.558594 C 789.570312 626.933594 794.542969 626.121094 799.511719 626.121094 L 811.890625 626.121094 L 811.890625 696.941406 C 811.890625 699.582031 811.6875 702.21875 811.183594 704.859375 C 807.429688 725.960938 789.0625 741.28125 767.554688 741.28125 L 755.175781 741.28125 L 755.175781 670.460938 C 755.175781 670.054688 755.175781 669.648438 755.175781 669.242188 C 755.277344 665.792969 755.78125 662.445312 756.59375 659.199219 C 756.898438 658.082031 757.203125 657.066406 757.609375 656.054688 C 757.8125 655.546875 758.015625 655.039062 758.21875 654.53125 C 762.785156 642.457031 772.421875 632.820312 784.902344 628.558594 Z M 868.914062 699.886719 C 868.914062 706.988281 868.304688 714.089844 867.089844 720.886719 C 866.785156 722.816406 866.378906 724.746094 865.871094 726.671875 C 865.667969 727.585938 865.464844 728.601562 865.160156 729.511719 C 852.375 779.128906 808.238281 816.265625 755.175781 818.597656 L 755.175781 751.023438 L 767.554688 751.023438 C 793.832031 751.023438 816.253906 732.253906 820.820312 706.480469 C 821.429688 703.335938 821.632812 700.089844 821.632812 696.84375 L 821.632812 616.179688 L 799.3125 616.179688 C 794.847656 616.179688 790.382812 616.6875 786.019531 617.800781 C 779.625 603.699219 765.726562 594.464844 749.796875 594.464844 C 727.878906 594.464844 710.125 612.222656 710.125 634.136719 C 710.125 637.992188 710.632812 641.644531 711.746094 645.195312 C 702.820312 641.339844 693.078125 639.210938 683.136719 639.210938 L 678.164062 639.210938 L 678.164062 731.136719 C 678.164062 763.605469 704.542969 789.984375 737.011719 789.984375 L 745.128906 789.984375 L 745.128906 818.496094 C 681.816406 815.960938 630.984375 763.707031 630.984375 699.785156 L 630.984375 501.726562 C 630.984375 436.183594 684.25 382.914062 749.796875 382.914062 C 815.34375 382.914062 868.609375 436.183594 868.609375 501.726562 L 868.609375 699.886719 Z M 868.914062 699.886719 " fill-opacity="1" fill-rule="nonzero"/><g clip-path="url(#3b98e439c2)"><path fill="#5ce1e6" d="M 803.375 498.785156 C 752.8125 501.746094 751.546875 504.152344 749.996094 600.804688 C 748.445312 504.152344 747.183594 501.746094 696.621094 498.785156 C 747.183594 495.828125 748.445312 493.417969 749.996094 396.769531 C 751.546875 493.417969 752.8125 495.828125 803.375 498.785156 Z M 803.375 498.785156 " fill-opacity="1" fill-rule="nonzero"/></g><g transform="matrix(1, 0, 0, 1, 466, 883)"><g clip-path="url(#e40566f2d8)"><g fill="currentColor" fill-opacity="1"><g transform="translate(0.649378, 57.880583)"><g><path d="M 1.203125 -37.015625 L 1.203125 -40.921875 L 25.203125 -40.921875 L 25.203125 -37.015625 L 15.296875 -37.015625 L 15.296875 -0.125 L 11.09375 -0.125 L 11.09375 -37.015625 Z M 1.203125 -37.015625 "/></g></g></g><g fill="currentColor" fill-opacity="1"><g transform="translate(39.769446, 57.880583)"><g><path d="M 8.703125 -20.15625 L 18.1875 -20.15625 C 20.539062 -20.15625 22.476562 -20.957031 24 -22.5625 C 25.5625 -24.195312 26.34375 -26.21875 26.34375 -28.625 C 26.34375 -30.976562 25.601562 -32.9375 24.125 -34.5 C 22.644531 -36.019531 20.664062 -36.78125 18.1875 -36.78125 L 8.703125 -36.78125 Z M 30.546875 -28.5 C 30.546875 -24.9375 29.285156 -21.976562 26.765625 -19.625 C 24.523438 -17.539062 21.820312 -16.398438 18.65625 -16.203125 L 31.203125 0 L 25.5625 0 L 13.625 -16.140625 L 8.703125 -16.140625 L 8.703125 0 L 4.5 0 L 4.5 -40.796875 L 17.578125 -40.796875 C 21.222656 -40.796875 24.285156 -39.65625 26.765625 -37.375 C 29.285156 -34.976562 30.546875 -32.019531 30.546875 -28.5 Z M 30.546875 -28.5 "/></g></g></g><g fill="currentColor" fill-opacity="1"><g transform="translate(85.129519, 57.880583)"><g><path d="M 11.09375 -15 L 25.921875 -15 L 18.546875 -33.78125 Z M 36.421875 0 L 31.859375 0 L 27.484375 -11.09375 L 9.546875 -11.09375 L 5.15625 0 L 0.59375 0 L 18.546875 -43.625 Z M 36.421875 0 "/></g></g></g><g fill="currentColor" fill-opacity="1"><g transform="translate(134.869566, 57.880583)"><g><path d="M 8.703125 -30.0625 L 8.703125 0 L 4.5 0 L 4.5 -43.375 L 27.421875 -10.796875 L 27.421875 -40.796875 L 31.625 -40.796875 L 31.625 2.515625 Z M 8.703125 -30.0625 "/></g></g></g><g fill="currentColor" fill-opacity="1"><g transform="translate(183.70965, 57.880583)"><g><path d="M 44.640625 -20.34375 C 44.640625 -17.457031 44.097656 -14.753906 43.015625 -12.234375 C 41.898438 -9.679688 40.398438 -7.460938 38.515625 -5.578125 C 37.273438 -4.335938 35.894531 -3.28125 34.375 -2.40625 C 36.0625 -2.757812 37.644531 -3.097656 39.125 -3.421875 L 45.234375 -3.421875 L 45.234375 0 L 28.6875 0 C 27.039062 0.394531 25.359375 0.59375 23.640625 0.59375 C 20.753906 0.59375 18.054688 0.0351562 15.546875 -1.078125 C 12.984375 -2.160156 10.757812 -3.660156 8.875 -5.578125 C 6.957031 -7.460938 5.457031 -9.679688 4.375 -12.234375 C 3.257812 -14.753906 2.703125 -17.457031 2.703125 -20.34375 C 2.703125 -23.21875 3.257812 -25.9375 4.375 -28.5 C 5.457031 -31.0625 6.957031 -33.300781 8.875 -35.21875 C 10.757812 -37.101562 12.984375 -38.601562 15.546875 -39.71875 C 18.054688 -40.800781 20.753906 -41.34375 23.640625 -41.34375 C 26.515625 -41.34375 29.234375 -40.800781 31.796875 -39.71875 C 34.359375 -38.601562 36.597656 -37.101562 38.515625 -35.21875 C 40.398438 -33.300781 41.898438 -31.0625 43.015625 -28.5 C 44.097656 -25.9375 44.640625 -23.21875 44.640625 -20.34375 Z M 40.4375 -20.34375 C 40.4375 -24.976562 38.796875 -28.9375 35.515625 -32.21875 C 32.234375 -35.5 28.273438 -37.140625 23.640625 -37.140625 C 19.035156 -37.140625 15.09375 -35.5 11.8125 -32.21875 C 8.539062 -28.9375 6.90625 -24.976562 6.90625 -20.34375 C 6.90625 -15.738281 8.539062 -11.796875 11.8125 -8.515625 C 15.09375 -5.234375 19.035156 -3.59375 23.640625 -3.59375 C 28.273438 -3.59375 32.234375 -5.234375 35.515625 -8.515625 C 38.796875 -11.796875 40.4375 -15.738281 40.4375 -20.34375 Z M 40.4375 -20.34375 "/></g></g></g><g fill="currentColor" fill-opacity="1"><g transform="translate(243.469732, 57.880583)"><g><path d="M 34.015625 -13.5 C 34.015625 -9.101562 32.578125 -5.625 29.703125 -3.0625 C 26.984375 -0.65625 23.363281 0.546875 18.84375 0.546875 C 14.28125 0.546875 10.640625 -0.65625 7.921875 -3.0625 C 5.035156 -5.625 3.59375 -9.101562 3.59375 -13.5 L 3.59375 -40.796875 L 7.796875 -40.796875 L 7.796875 -12.90625 C 7.796875 -9.820312 8.914062 -7.457031 11.15625 -5.8125 C 13.082031 -4.375 15.644531 -3.65625 18.84375 -3.65625 C 23.84375 -3.65625 27.203125 -5.335938 28.921875 -8.703125 C 29.515625 -9.859375 29.8125 -11.257812 29.8125 -12.90625 L 29.8125 -40.796875 L 34.015625 -40.796875 Z M 34.015625 -13.5 "/></g></g></g><g fill="currentColor" fill-opacity="1"><g transform="translate(293.809814, 57.880583)"><g><path d="M 8.703125 0 L 4.5 0 L 4.5 -40.796875 L 8.703125 -40.796875 Z M 8.703125 0 "/></g></g></g><g fill="currentColor" fill-opacity="1"><g transform="translate(319.729902, 57.880583)"><g><path d="M 8.703125 -4.203125 L 23.28125 -4.203125 L 23.28125 0 L 4.5 0 L 4.5 -40.796875 L 8.703125 -40.796875 Z M 8.703125 -4.203125 "/></g></g></g><g fill="currentColor" fill-opacity="1"><g transform="translate(356.929972, 57.880583)"><g><path d="M 40.4375 -20.515625 C 40.4375 -25.117188 38.796875 -29.0625 35.515625 -32.34375 C 32.234375 -35.625 28.273438 -37.265625 23.640625 -37.265625 C 19.035156 -37.265625 15.09375 -35.625 11.8125 -32.34375 C 8.539062 -29.0625 6.90625 -25.117188 6.90625 -20.515625 C 6.90625 -15.878906 8.539062 -11.921875 11.8125 -8.640625 C 15.09375 -5.359375 19.035156 -3.71875 23.640625 -3.71875 C 28.273438 -3.71875 32.234375 -5.359375 35.515625 -8.640625 C 38.796875 -11.921875 40.4375 -15.878906 40.4375 -20.515625 Z M 44.640625 -20.515625 C 44.640625 -17.640625 44.097656 -14.921875 43.015625 -12.359375 C 41.898438 -9.796875 40.398438 -7.578125 38.515625 -5.703125 C 36.597656 -3.773438 34.359375 -2.273438 31.796875 -1.203125 C 29.234375 -0.078125 26.515625 0.484375 23.640625 0.484375 C 20.753906 0.484375 18.054688 -0.078125 15.546875 -1.203125 C 12.984375 -2.273438 10.757812 -3.773438 8.875 -5.703125 C 6.957031 -7.578125 5.457031 -9.796875 4.375 -12.359375 C 3.257812 -14.921875 2.703125 -17.640625 2.703125 -20.515625 C 2.703125 -23.398438 3.257812 -26.125 4.375 -28.6875 C 5.457031 -31.238281 6.957031 -33.457031 8.875 -35.34375 C 10.757812 -37.21875 12.984375 -38.71875 15.546875 -39.84375 C 18.054688 -40.914062 20.753906 -41.453125 23.640625 -41.453125 C 26.515625 -41.453125 29.234375 -40.914062 31.796875 -39.84375 C 34.359375 -38.71875 36.597656 -37.21875 38.515625 -35.34375 C 40.398438 -33.457031 41.898438 -31.238281 43.015625 -28.6875 C 44.097656 -26.125 44.640625 -23.398438 44.640625 -20.515625 Z M 44.640625 -20.515625 "/></g></g></g><g fill="currentColor" fill-opacity="1"><g transform="translate(416.990027, 57.880583)"><g><path d="M 7.984375 0.59375 C 7.054688 0.59375 6.253906 0.253906 5.578125 -0.421875 C 4.859375 -1.054688 4.5 -1.835938 4.5 -2.765625 C 4.5 -3.679688 4.835938 -4.476562 5.515625 -5.15625 C 6.203125 -5.84375 7.023438 -6.1875 7.984375 -6.1875 C 8.941406 -6.1875 9.78125 -5.863281 10.5 -5.21875 C 11.175781 -4.539062 11.515625 -3.738281 11.515625 -2.8125 C 11.515625 -1.851562 11.15625 -1.054688 10.4375 -0.421875 C 9.71875 0.253906 8.898438 0.59375 7.984375 0.59375 Z M 7.984375 0.59375 "/></g></g></g><g fill="currentColor" fill-opacity="1"><g transform="translate(445.730121, 57.880583)"><g><path d="M 11.09375 -15 L 25.921875 -15 L 18.546875 -33.78125 Z M 36.421875 0 L 31.859375 0 L 27.484375 -11.09375 L 9.546875 -11.09375 L 5.15625 0 L 0.59375 0 L 18.546875 -43.625 Z M 36.421875 0 "/></g></g></g><g fill="currentColor" fill-opacity="1"><g transform="translate(495.470168, 57.880583)"><g><path d="M 8.703125 -20.15625 L 18.1875 -20.15625 C 20.539062 -20.15625 22.476562 -20.957031 24 -22.5625 C 25.5625 -24.195312 26.34375 -26.21875 26.34375 -28.625 C 26.34375 -30.976562 25.601562 -32.9375 24.125 -34.5 C 22.644531 -36.019531 20.664062 -36.78125 18.1875 -36.78125 L 8.703125 -36.78125 Z M 30.546875 -28.5 C 30.546875 -24.9375 29.285156 -21.976562 26.765625 -19.625 C 24.523438 -17.539062 21.820312 -16.398438 18.65625 -16.203125 L 31.203125 0 L 25.5625 0 L 13.625 -16.140625 L 8.703125 -16.140625 L 8.703125 0 L 4.5 0 L 4.5 -40.796875 L 17.578125 -40.796875 C 21.222656 -40.796875 24.285156 -39.65625 26.765625 -37.375 C 29.285156 -34.976562 30.546875 -32.019531 30.546875 -28.5 Z M 30.546875 -28.5 "/></g></g></g><g fill="currentColor" fill-opacity="1"><g transform="translate(540.830241, 57.880583)"><g><path d="M 1.203125 -37.015625 L 1.203125 -40.921875 L 25.203125 -40.921875 L 25.203125 -37.015625 L 15.296875 -37.015625 L 15.296875 -0.125 L 11.09375 -0.125 L 11.09375 -37.015625 Z M 1.203125 -37.015625 "/></g></g></g></g></g></svg>
